<?xml version="1.0" standalone="no"?>
<svg xmlns="http://www.w3.org/2000/svg" xmlns:xlink="http://www.w3.org/1999/xlink" width="12" height="12" viewBox="0 0 12 8" fill="none">
    <path d="M9.73242 3.25C10.0449 3.25 10.3379 3.30859 10.6113 3.42578C10.8887 3.54297 11.1289 3.70312 11.332 3.90625C11.5391 4.10547 11.7012 4.3418 11.8184 4.61523C11.9395 4.88867 12 5.18359 12 5.5C12 5.8125 11.9414 6.10547 11.8242 6.37891C11.707 6.64844 11.5449 6.88672 11.3379 7.09375C11.1348 7.29688 10.8965 7.45703 10.623 7.57422C10.3496 7.69141 10.0586 7.75 9.75 7.75H3C2.58594 7.75 2.19531 7.67188 1.82812 7.51562C1.46484 7.35938 1.14648 7.14648 0.873047 6.87695C0.603516 6.60352 0.390625 6.28516 0.234375 5.92188C0.078125 5.55469 0 5.16406 0 4.75C0 4.33594 0.078125 3.94727 0.234375 3.58398C0.390625 3.2168 0.603516 2.89844 0.873047 2.62891C1.14648 2.35547 1.46484 2.14062 1.82812 1.98438C2.19531 1.82812 2.58594 1.75 3 1.75C3.17969 1.75 3.36133 1.76758 3.54492 1.80273C3.70117 1.56055 3.88086 1.34375 4.08398 1.15234C4.29102 0.957031 4.51562 0.792969 4.75781 0.660156C5 0.527344 5.25781 0.425781 5.53125 0.355469C5.80469 0.285156 6.08594 0.25 6.375 0.25C6.80859 0.25 7.2168 0.326172 7.59961 0.478516C7.98633 0.630859 8.32812 0.841797 8.625 1.11133C8.92188 1.37695 9.16602 1.69336 9.35742 2.06055C9.55273 2.42773 9.67773 2.82422 9.73242 3.25ZM9.75 7C9.95703 7 10.1504 6.96094 10.3301 6.88281C10.5137 6.80469 10.6738 6.69727 10.8105 6.56055C10.9473 6.42383 11.0547 6.26562 11.1328 6.08594C11.2109 5.90234 11.25 5.70703 11.25 5.5C11.25 5.29297 11.2109 5.09961 11.1328 4.91992C11.0547 4.73633 10.9473 4.57617 10.8105 4.43945C10.6738 4.30273 10.5137 4.19531 10.3301 4.11719C10.1504 4.03906 9.95703 4 9.75 4H9V3.625C9 3.26172 8.93164 2.92188 8.79492 2.60547C8.6582 2.28516 8.4707 2.00586 8.23242 1.76758C7.99414 1.5293 7.71484 1.3418 7.39453 1.20508C7.07812 1.06836 6.73828 1 6.375 1C6.10156 1 5.83789 1.04102 5.58398 1.12305C5.33008 1.20508 5.0957 1.32031 4.88086 1.46875C4.66992 1.61719 4.48242 1.79688 4.31836 2.00781C4.1543 2.21484 4.02344 2.44727 3.92578 2.70508C3.63281 2.56836 3.32422 2.5 3 2.5C2.6875 2.5 2.39453 2.55859 2.12109 2.67578C1.85156 2.79297 1.61328 2.95508 1.40625 3.16211C1.20312 3.36523 1.04297 3.60352 0.925781 3.87695C0.808594 4.15039 0.75 4.44141 0.75 4.75C0.75 5.0625 0.808594 5.35547 0.925781 5.62891C1.04297 5.89844 1.20312 6.13672 1.40625 6.34375C1.61328 6.54688 1.85156 6.70703 2.12109 6.82422C2.39453 6.94141 2.6875 7 3 7H9.75Z"
          fill="white" fill-opacity="0.6"></path>
</svg>