<?xml version="1.0" standalone="no"?>
<svg xmlns="http://www.w3.org/2000/svg" xmlns:xlink="http://www.w3.org/1999/xlink" width="12" height="12"
     viewBox="0 0 14 24">
    <path d="M14 9.75C14 10.6094 13.8477 11.4258 13.543 12.1992C13.2383 12.9648 12.8164 13.6484 12.2773 14.25C11.7383 14.8516 11.1016 15.3477 10.3672 15.7383C9.64062 16.1211 8.85156 16.3633 8 16.4648V24H6.5V16.4648C5.64844 16.3633 4.85547 16.1211 4.12109 15.7383C3.39453 15.3477 2.76172 14.8516 2.22266 14.25C1.68359 13.6484 1.26172 12.9648 0.957031 12.1992C0.652344 11.4258 0.5 10.6094 0.5 9.75C0.5 8.84375 0.667969 7.98437 1.00391 7.17188C1.34766 6.35156 1.83984 5.62109 2.48047 4.98047C3.28516 4.17578 4.07812 3.37891 4.85938 2.58984C5.64844 1.80078 6.44531 1.00391 7.25 0.199219C8.05469 1.00391 8.84766 1.80078 9.62891 2.58984C10.418 3.37891 11.2148 4.17578 12.0195 4.98047C12.6602 5.62109 13.1484 6.35156 13.4844 7.17188C13.8281 7.98437 14 8.84375 14 9.75ZM8 14.9414C8.64844 14.8555 9.24609 14.6602 9.79297 14.3555C10.3398 14.043 10.8125 13.6562 11.2109 13.1953C11.6094 12.7266 11.9219 12.1992 12.1484 11.6133C12.375 11.0195 12.4883 10.3984 12.4883 9.75C12.4883 9.05469 12.3555 8.38672 12.0898 7.74609C11.832 7.09766 11.457 6.52734 10.9648 6.03516L7.25 2.32031L3.53516 6.03516C3.04297 6.52734 2.66406 7.09766 2.39844 7.74609C2.13281 8.38672 2 9.05469 2 9.75C2 10.3984 2.11328 11.0195 2.33984 11.6133C2.56641 12.1992 2.87891 12.7266 3.27734 13.1953C3.67578 13.6562 4.14844 14.043 4.69531 14.3555C5.25 14.6602 5.85156 14.8555 6.5 14.9414V6H8V14.9414Z"
          fill="white"></path>
</svg>