<?xml version="1.0" standalone="no"?><!DOCTYPE svg PUBLIC "-//W3C//DTD SVG 1.1//EN"
        "http://www.w3.org/Graphics/SVG/1.1/DTD/svg11.dtd">
<svg xmlns="http://www.w3.org/2000/svg" xmlns:xlink="http://www.w3.org/1999/xlink" width="12" height="12" viewBox="0 0 18 18">
    <path d="M16.998 9.0625C17.2454 9.49219 17.431 9.94466 17.5547 10.4199C17.6784 10.8952 17.7435 11.3802 17.75 11.875C17.75 12.6497 17.6035 13.3789 17.3105 14.0625C17.0176 14.7461 16.6139 15.3418 16.0996 15.8496C15.5853 16.3574 14.9896 16.7578 14.3125 17.0508C13.6354 17.3438 12.9062 17.4935 12.125 17.5C11.3503 17.5 10.6211 17.3535 9.9375 17.0605C9.25391 16.7676 8.6582 16.3639 8.15039 15.8496C7.64258 15.3353 7.24219 14.7396 6.94922 14.0625C6.65625 13.3854 6.50651 12.6562 6.5 11.875C6.5 11.3867 6.56185 10.9049 6.68555 10.4297C6.80924 9.95443 6.99805 9.4987 7.25195 9.0625L12.125 0.625L16.998 9.0625ZM12.125 16.25C12.7305 16.25 13.2969 16.1361 13.8242 15.9082C14.3516 15.6803 14.8138 15.3678 15.2109 14.9707C15.6081 14.5736 15.9206 14.1113 16.1484 13.584C16.3763 13.0566 16.4935 12.487 16.5 11.875C16.5 11.4909 16.4512 11.1133 16.3535 10.7422C16.2559 10.3711 16.1094 10.0195 15.9141 9.6875L12.125 3.125L8.33594 9.6875C8.14714 10.0195 8.00391 10.3711 7.90625 10.7422C7.80859 11.1133 7.75651 11.4909 7.75 11.875C7.75 12.4805 7.86393 13.0469 8.0918 13.5742C8.31966 14.1016 8.63216 14.5638 9.0293 14.9609C9.42643 15.3581 9.88867 15.6706 10.416 15.8984C10.9434 16.1263 11.513 16.2435 12.125 16.25ZM0.25 1.25H4V17.5H0.25V16.25H2.75V13.75H1.5V12.5H2.75V10H0.25V8.75H2.75V6.25H1.5V5H2.75V2.5H0.25V1.25Z" fill="#ffffff"></path>
</svg>