<?xml version="1.0" standalone="no"?>
<svg xmlns="http://www.w3.org/2000/svg" xmlns:xlink="http://www.w3.org/1999/xlink" width="12" height="12" viewBox="0 0 10 10">
    <path d="M4.6875 2.5C4.99023 2.5 5.27344 2.55697 5.53711 2.6709C5.80404 2.78483 6.03678 2.94108 6.23535 3.13965C6.43392 3.33822 6.59017 3.57096 6.7041 3.83789C6.81803 4.10156 6.875 4.38477 6.875 4.6875C6.875 4.99023 6.81803 5.27507 6.7041 5.54199C6.59017 5.80566 6.43392 6.03678 6.23535 6.23535C6.03678 6.43392 5.80404 6.59017 5.53711 6.7041C5.27344 6.81803 4.99023 6.875 4.6875 6.875C4.38477 6.875 4.09993 6.81803 3.83301 6.7041C3.56934 6.59017 3.33822 6.43392 3.13965 6.23535C2.94108 6.03678 2.78483 5.80566 2.6709 5.54199C2.55697 5.27507 2.5 4.99023 2.5 4.6875C2.5 4.38477 2.55697 4.10156 2.6709 3.83789C2.78483 3.57096 2.94108 3.33822 3.13965 3.13965C3.33822 2.94108 3.56934 2.78483 3.83301 2.6709C4.09993 2.55697 4.38477 2.5 4.6875 2.5ZM4.6875 6.25C4.90234 6.25 5.10417 6.20931 5.29297 6.12793C5.48177 6.04655 5.64616 5.93587 5.78613 5.7959C5.92936 5.65267 6.04167 5.48665 6.12305 5.29785C6.20768 5.10579 6.25 4.90234 6.25 4.6875C6.25 4.47266 6.20768 4.27083 6.12305 4.08203C6.04167 3.89323 5.92936 3.72884 5.78613 3.58887C5.64616 3.44564 5.48177 3.33333 5.29297 3.25195C5.10417 3.16732 4.90234 3.125 4.6875 3.125C4.47266 3.125 4.26921 3.16732 4.07715 3.25195C3.88835 3.33333 3.72233 3.44564 3.5791 3.58887C3.43913 3.72884 3.32845 3.89323 3.24707 4.08203C3.16569 4.27083 3.125 4.47266 3.125 4.6875C3.125 4.90234 3.16569 5.10579 3.24707 5.29785C3.32845 5.48665 3.43913 5.65267 3.5791 5.7959C3.72233 5.93587 3.88835 6.04655 4.07715 6.12793C4.26921 6.20931 4.47266 6.25 4.6875 6.25ZM5 1.875H4.375V0H5V1.875ZM4.375 7.5H5V9.375H4.375V7.5ZM9.375 4.375V5H7.5V4.375H9.375ZM1.875 5H0V4.375H1.875V5ZM2.47559 2.91992L1.15234 1.5918L1.5918 1.15234L2.91992 2.47559L2.47559 2.91992ZM6.89941 6.45508L8.22266 7.7832L7.7832 8.22266L6.45508 6.89941L6.89941 6.45508ZM6.89941 2.91992L6.45508 2.47559L7.7832 1.15234L8.22266 1.5918L6.89941 2.91992ZM2.47559 6.45508L2.91992 6.89941L1.5918 8.22266L1.15234 7.7832L2.47559 6.45508Z"
          fill="white" fill-opacity="0.8"></path>
</svg>