<?xml version="1.0" standalone="no"?><!DOCTYPE svg PUBLIC "-//W3C//DTD SVG 1.1//EN"
        "http://www.w3.org/Graphics/SVG/1.1/DTD/svg11.dtd">
<svg xmlns="http://www.w3.org/2000/svg" xmlns:xlink="http://www.w3.org/1999/xlink" width="12" height="12" viewBox="0 0 24 12">
    <path d="M12 0C13.1719 0 14.3125 0.152344 15.4219 0.457031C16.5312 0.761719 17.5938 1.18359 18.6094 1.72266C19.6328 2.25391 20.5938 2.88672 21.4922 3.62109C22.3984 4.35547 23.2344 5.14844 24 6C23.2344 6.85938 22.3984 7.65625 21.4922 8.39062C20.5938 9.11719 19.6328 9.75 18.6094 10.2891C17.5938 10.8203 16.5312 11.2383 15.4219 11.543C14.3125 11.8477 13.1719 12 12 12C10.8281 12 9.6875 11.8477 8.57812 11.543C7.46875 11.2383 6.40234 10.8203 5.37891 10.2891C4.36328 9.75 3.40234 9.11719 2.49609 8.39062C1.58984 7.65625 0.757812 6.85938 0 6C0.757812 5.14844 1.58984 4.35547 2.49609 3.62109C3.40234 2.88672 4.36328 2.25391 5.37891 1.72266C6.40234 1.18359 7.46875 0.761719 8.57812 0.457031C9.6875 0.152344 10.8281 0 12 0ZM12 10.2891C12.5938 10.2891 13.1484 10.1758 13.6641 9.94922C14.1875 9.72266 14.6406 9.41797 15.0234 9.03516C15.4141 8.64453 15.7227 8.19141 15.9492 7.67578C16.1758 7.15234 16.2891 6.59375 16.2891 6C16.2891 5.40625 16.1758 4.85156 15.9492 4.33594C15.7227 3.8125 15.4141 3.35938 15.0234 2.97656C14.6406 2.58594 14.1875 2.27734 13.6641 2.05078C13.1484 1.82422 12.5938 1.71094 12 1.71094C11.4062 1.71094 10.8477 1.82422 10.3242 2.05078C9.80859 2.27734 9.35547 2.58594 8.96484 2.97656C8.58203 3.35938 8.27734 3.8125 8.05078 4.33594C7.82422 4.85156 7.71094 5.40625 7.71094 6C7.71094 6.59375 7.82422 7.15234 8.05078 7.67578C8.27734 8.19141 8.58203 8.64453 8.96484 9.03516C9.35547 9.41797 9.80859 9.72266 10.3242 9.94922C10.8477 10.1758 11.4062 10.2891 12 10.2891ZM7.60547 9.65625C7.17578 9.14062 6.84766 8.57031 6.62109 7.94531C6.39453 7.32031 6.28125 6.67188 6.28125 6C6.28125 5.32812 6.39453 4.67969 6.62109 4.05469C6.84766 3.42969 7.17578 2.85938 7.60547 2.34375C6.55859 2.75781 5.57422 3.27734 4.65234 3.90234C3.73828 4.51953 2.87891 5.21875 2.07422 6C2.87891 6.78125 3.73828 7.48438 4.65234 8.10938C5.57422 8.72656 6.55859 9.24219 7.60547 9.65625ZM21.9258 6C21.1211 5.21875 20.2578 4.51953 19.3359 3.90234C18.4219 3.27734 17.4414 2.75781 16.3945 2.34375C16.8242 2.85938 17.1523 3.42969 17.3789 4.05469C17.6055 4.67969 17.7188 5.32812 17.7188 6C17.7188 6.67188 17.6055 7.32031 17.3789 7.94531C17.1523 8.57031 16.8242 9.14062 16.3945 9.65625C17.4414 9.24219 18.4219 8.72656 19.3359 8.10938C20.2578 7.48438 21.1211 6.78125 21.9258 6ZM12 3.99609C12.2734 3.99609 12.5312 4.05078 12.7734 4.16016C13.0156 4.26172 13.2266 4.40625 13.4062 4.59375C13.5938 4.77344 13.7383 4.98438 13.8398 5.22656C13.9492 5.46875 14.0039 5.72656 14.0039 6C14.0039 6.27344 13.9492 6.53516 13.8398 6.78516C13.7383 7.02734 13.5938 7.23828 13.4062 7.41797C13.2266 7.59766 13.0156 7.74219 12.7734 7.85156C12.5312 7.95312 12.2734 8.00391 12 8.00391C11.7266 8.00391 11.4648 7.95312 11.2148 7.85156C10.9727 7.74219 10.7617 7.59766 10.582 7.41797C10.4023 7.23828 10.2578 7.02734 10.1484 6.78516C10.0469 6.53516 9.99609 6.27344 9.99609 6C9.99609 5.72656 10.0469 5.46875 10.1484 5.22656C10.2578 4.98438 10.4023 4.77344 10.582 4.59375C10.7617 4.40625 10.9727 4.26172 11.2148 4.16016C11.4648 4.05078 11.7266 3.99609 12 3.99609Z"
          fill="white"></path>
</svg>