<?xml version="1.0" standalone="no"?><!DOCTYPE svg PUBLIC "-//W3C//DTD SVG 1.1//EN" "http://www.w3.org/Graphics/SVG/1.1/DTD/svg11.dtd"><svg t="1637029303188" class="icon" viewBox="0 0 1024 1024" version="1.1" xmlns="http://www.w3.org/2000/svg" p-id="9762" xmlns:xlink="http://www.w3.org/1999/xlink" width="200" height="200"><defs><style type="text/css"></style></defs><path d="M512 180.8c63.04 84.8 224 314.88 224 459.2 0 159.04-64.96 224-224 224-159.04 0-224-64.96-224-224 0-144.32 160.96-374.4 224-459.2m0-32a32 32 0 0 0-25.696 12.896C400.288 277.376 256 493.376 256 640c0 177.024 78.944 256 256 256 177.024 0 256-78.976 256-256 0-146.56-144.32-362.592-230.304-478.304A32 32 0 0 0 512 148.8z" fill="#2D2220" p-id="9763"></path><path d="M736 640c0 159.04-64.96 224-224 224-56 0-100.16-8-134.08-25.92-17.92-33.92-25.92-78.08-25.92-134.08 0-137.6 146.24-353.28 214.72-446.4C639.36 364.8 736 528 736 640z" fill="#31CFFF" p-id="9764"></path><path d="M432 800a16.512 16.512 0 0 1-5.056-0.8C389.952 786.848 320 741.056 320 656a16 16 0 0 1 32 0c0 83.008 81.632 111.648 85.088 112.832A16 16 0 0 1 432 800zM336 607.968h-0.064A16 16 0 0 1 320 592c0-2.816 0.768-69.984 66.688-168.864a16 16 0 0 1 26.624 17.728C353.344 530.848 352 591.456 352 592.096a16.064 16.064 0 0 1-16 15.872zM544 784a16 16 0 0 0-16-16h-32a16 16 0 0 0 0 32h32a16 16 0 0 0 16-16z" fill="#2D2220" p-id="9765"></path></svg>